<svg width="62" height="55" viewBox="0 0 62 55" fill="none" xmlns="http://www.w3.org/2000/svg">
<path d="M50.1078 33.727C55.8045 33.3874 60.6972 37.7315 61.0343 43.4284C61.3715 49.1252 57.0251 54.0161 51.3281 54.3505C45.6348 54.6849 40.7477 50.3419 40.4108 44.6487C40.074 38.9555 44.4147 34.0665 50.1078 33.727ZM49.3585 44.9623C48.964 44.5969 48.028 43.7566 47.6179 43.2419C46.4624 41.7916 44.734 41.7688 44.4655 43.8755C44.391 44.4606 45.7423 45.6373 46.286 46.158C46.9945 46.8814 48.2014 48.2524 49.0458 48.6429C49.3471 48.6386 49.8003 48.6363 50.0397 48.4488C50.9246 47.7561 51.8958 46.6867 52.6828 45.8807L56.0496 42.4724C56.4159 42.0964 57.0622 41.3892 57.0024 40.8592C56.8884 39.8495 55.9387 39.3728 55.0357 39.5207C53.904 40.0513 50.6597 43.8881 49.3585 44.9623Z" fill="#FEFEFE"/>
<path d="M30.0229 33.2271C30.4821 33.1862 31.1038 33.2461 31.5662 33.2849C34.7131 33.5492 37.6067 34.8239 40.0565 36.7938C40.1173 36.8198 40.4263 37.11 40.3913 37.1729C38.496 40.5701 38.1864 42.9125 38.6888 46.7859C37.4523 46.8509 35.8046 46.7931 34.5303 46.7927L26.3251 46.792L20.1555 46.799C19.0775 46.8039 17.9808 46.8549 16.9067 46.7917C15.0669 46.6834 15.3305 45.3847 15.7185 44.0965C16.3276 42.0156 17.3754 40.0893 18.7914 38.4471C21.1374 35.7615 24.3499 33.9823 27.8711 33.4187C28.4949 33.3157 29.3779 33.2728 30.0229 33.2271Z" fill="#FEFEFE"/>
<path d="M29.5942 16.6617C33.8166 16.2874 37.5434 19.4058 37.9197 23.628C38.296 27.8502 35.1795 31.5785 30.9574 31.9569C26.7325 32.3355 23.0011 29.2164 22.6245 24.9913C22.2479 20.7662 25.3689 17.0362 29.5942 16.6617Z" fill="#FEFEFE"/>
<path d="M47.5158 4.73814C47.7251 4.69441 47.785 4.7617 47.8804 4.90914C47.9792 5.57643 47.3707 8.76387 47.1914 9.53442C47.8573 10.1016 51.1009 11.7869 51.1114 12.4134C50.6745 13.0962 47.2123 12.9452 46.5082 13.4271C46.0525 13.739 45.5612 18.1027 44.8465 18.0202C44.4429 17.6556 42.8494 14.3883 42.59 13.7408C42.0392 13.8506 38.3382 14.0484 37.8373 13.934C37.801 13.8971 37.7394 13.8543 37.7319 13.8028C37.6297 13.0987 40.3233 11.0662 40.7595 10.394C40.7967 10.3365 40.8521 10.2399 40.861 10.1724C40.943 9.55072 39.5947 7.01943 39.4271 6.08553C39.3944 5.90358 39.3809 5.75404 39.4921 5.59413C39.8943 5.47355 43.2194 7.34792 43.9094 7.64235C44.7589 6.88905 46.58 5.29683 47.5158 4.73814Z" fill="#FEFEFE"/>
<path d="M7.45631 14.1367C7.51316 14.143 7.60916 14.1844 7.66741 14.206C8.07898 14.6412 8.46629 18.154 8.57433 18.9124C9.24009 19.1228 13.1933 19.9089 13.1383 20.5329C12.814 20.9432 9.80215 22.288 8.95661 22.8331C9.1129 24.1543 9.15771 25.4756 9.23564 26.8052C9.25034 27.0565 9.22055 27.3196 9.0388 27.5065C8.05816 27.7188 6.02528 24.1578 5.12632 24.4668C4.48112 24.7119 1.12201 26.2526 0.802526 25.7307C0.78029 25.2632 2.52055 22.0831 2.8432 21.4747C2.3844 20.882 -0.0560809 18.1583 0.00098469 17.6524C0.0122399 17.5526 0.0781863 17.529 0.152504 17.4698C0.647079 17.3503 4.13064 17.9867 4.752 18.1409C5.56189 17.0917 6.51808 15.048 7.45631 14.1367Z" fill="#FEFEFE"/>
<path d="M30.1824 0C30.1964 0.00665893 30.2106 0.0128343 30.2243 0.0199834C30.8402 0.340923 31.9343 3.7514 32.1804 4.54888C33.1532 4.54735 34.1528 4.59713 35.1256 4.65118C35.5992 4.67747 36.8885 4.59236 36.984 5.12526C36.8274 5.58674 33.9885 7.69933 33.368 8.24223C33.6094 8.92837 34.7069 12.3986 34.4949 12.8914L34.357 12.9363C33.6483 12.8252 31.0088 11.0126 30.39 10.4972C29.6879 10.5691 26.7341 13.1381 26.0321 12.9638C25.9757 12.8632 25.9235 12.7213 25.9498 12.6076C26.2846 11.1603 26.7081 9.67129 27.1058 8.2456C26.133 7.23066 24.7842 6.46017 23.7875 5.45929C23.6058 5.27684 23.5403 5.15047 23.6515 4.91779C24.0898 4.58561 27.5697 4.54569 28.2987 4.54869C28.7029 3.5834 29.6532 0.65889 30.1824 0Z" fill="#FEFEFE"/>
<path d="M52.8532 14.1195C53.8516 14.4253 54.954 17.3629 55.7258 17.9961C56.1829 18.3712 60.3631 16.8907 60.5848 17.7696C60.5011 18.1244 58.0609 20.9978 57.7145 21.4228C58.1091 22.5793 59.3485 24.3706 59.7224 25.6138C59.7648 25.7547 59.7146 25.7877 59.6412 25.8917C59.1624 26.0527 56.571 24.8925 55.8628 24.6311C55.6117 24.5088 55.4864 24.4318 55.2106 24.3995C54.6635 24.4706 52.5177 27.2056 51.7949 27.536C51.5844 27.6322 51.5285 27.5685 51.3981 27.433C51.249 26.9733 51.4756 23.4327 51.5224 22.7553C50.8372 22.3716 47.592 20.9278 47.354 20.4366C47.3395 20.4068 47.3404 20.4161 47.3534 20.3836C47.4227 20.2106 47.5982 20.1174 47.7612 20.0465C48.9507 19.5292 50.7218 19.4423 51.9636 18.8615C52.0652 18.0413 52.4592 14.6084 52.8532 14.1195Z" fill="#FEFEFE"/>
<path d="M12.7208 4.69434C13.5687 4.77652 16.0327 7.36243 16.6404 7.54081C17.1043 7.67698 20.2559 5.51142 20.9908 5.61685C21.1046 5.63314 21.0893 5.6553 21.171 5.76161C21.2065 6.2171 19.8015 9.58776 19.5408 10.1994C20.0745 10.8755 22.7836 13.1828 22.8478 13.7754C22.8217 13.8073 22.7951 13.8367 22.7616 13.8614C22.4794 14.0696 18.9708 13.8681 18.3974 13.7954C18.2862 13.7767 18.0924 13.7583 17.9855 13.8459C17.3774 14.3441 16.2704 18.1283 15.4812 17.8909C15.1244 17.5396 14.2773 14.0389 14.1434 13.3534C12.8767 13.2881 11.1645 12.8395 9.86304 12.6899C9.70014 12.6711 9.51769 12.5352 9.4411 12.3858C9.46007 12.229 9.47834 12.1306 9.61553 12.0121C10.6479 11.1208 12.3121 10.3486 13.3506 9.52512C13.0917 8.78818 12.5816 5.47144 12.7208 4.69434Z" fill="#FEFEFE"/>
</svg>
