<svg width="61" height="52" viewBox="0 0 61 52" fill="none" xmlns="http://www.w3.org/2000/svg">
<path fill-rule="evenodd" clip-rule="evenodd" d="M30.2674 0.103648C54.0289 0.0951378 56.4598 0.114996 57.0725 0.323508C57.4427 0.451169 58.0171 0.737696 58.349 0.961812C58.6808 1.18735 59.1361 1.64125 59.3616 1.97317C59.5857 2.30509 59.8396 2.83133 59.9261 3.14339C60.0112 3.45545 60.1289 4.34907 60.1899 5.12922C60.2494 5.90937 60.2664 10.6853 60.1572 24.9407L59.6963 25.3535C59.3729 25.6443 59.0879 25.7677 58.739 25.7677C58.3603 25.7677 58.1249 25.65 57.2498 24.7748V17.9662H3.07231L3.04111 27.2925C3.02267 32.4216 3.02692 37.0018 3.04962 37.4699C3.07231 37.938 3.18151 38.5125 3.29356 38.7465C3.40418 38.9806 3.63961 39.2628 3.81548 39.3735C4.08778 39.5451 6.11306 39.5692 17.2549 39.5338C27.4437 39.5026 30.4532 39.5323 30.7284 39.6685C30.9227 39.765 31.1936 39.9792 31.3283 40.1465C31.463 40.3125 31.5751 40.6884 31.5765 40.9806C31.5779 41.3707 31.4687 41.6345 30.7511 42.4345L18.0817 42.4756C9.13537 42.504 5.14155 42.47 4.49057 42.3565C3.98283 42.2685 3.21697 42.0629 2.78866 41.8983C2.35892 41.7352 1.76184 41.3735 1.45975 41.0955C1.15766 40.8175 0.797421 40.3678 0.658432 40.0941C0.519442 39.8217 0.335068 39.2146 0.249973 38.7465C0.140767 38.155 0.0939644 32.928 0.096801 21.5833C0.101056 11.5378 0.157786 4.86255 0.2443 4.20723C0.322304 3.62283 0.515187 2.85686 0.672614 2.50509C0.830041 2.15473 1.16333 1.65402 1.41295 1.39302C1.66256 1.13344 2.04265 0.829896 2.25681 0.719256C2.47097 0.610036 2.98154 0.427055 3.39142 0.316416C4.02538 0.143365 8.03338 0.110741 30.2674 0.103648ZM3.35596 3.78169C3.27796 3.93772 3.173 4.78312 3.12195 5.66114C3.07231 6.53916 3.07231 7.56045 3.12195 7.93066L3.21413 8.60443H57.108C57.108 4.82 57.0541 4.09801 56.9123 3.81715C56.8045 3.60297 56.5492 3.34765 56.345 3.24977C56.0514 3.10935 50.5202 3.07389 30.1256 3.07814C7.74547 3.0824 4.22535 3.11218 3.88781 3.29091C3.67365 3.40439 3.43396 3.62566 3.35596 3.78169ZM45.5492 24.7875C46.2512 24.7805 47.4 24.8684 48.102 24.9819C48.8041 25.0939 49.9529 25.3861 50.6549 25.6315C51.3569 25.8755 52.3469 26.2996 52.8532 26.5748C53.3595 26.85 54.1906 27.3805 54.6969 27.7564C55.2033 28.1308 56.04 28.8741 56.5563 29.4074C57.0711 29.9408 57.8483 30.9209 58.2837 31.5833C58.7177 32.2472 59.2595 33.2358 59.4878 33.7819C59.7147 34.328 60.0211 35.2217 60.1657 35.7678C60.37 36.5281 60.4295 37.243 60.4253 38.8174C60.421 40.4813 60.3601 41.0912 60.109 42.009C59.9374 42.6331 59.5871 43.5905 59.3304 44.1366C59.0737 44.6827 58.6028 45.5125 58.2851 45.9806C57.9689 46.4487 57.3023 47.2218 56.8059 47.697C56.3095 48.1736 55.4557 48.8516 54.9097 49.2048C54.3637 49.558 53.4701 50.036 52.9241 50.2686C52.3781 50.4998 51.4846 50.8119 50.9386 50.9594C50.1372 51.1764 49.482 51.2275 47.5347 51.219C45.3379 51.2105 45.0131 51.1764 43.8827 50.8289C43.2005 50.6204 42.0517 50.1551 41.3298 49.7963C40.608 49.4374 39.6705 48.9111 39.2464 48.626C38.8224 48.3409 38.0253 47.6501 37.4736 47.0913C36.9233 46.5324 36.122 45.5111 35.6937 44.8218C35.2427 44.0983 34.7222 43.0005 34.4584 42.2217C34.2088 41.4799 33.9365 40.46 33.8556 39.9522C33.7748 39.4458 33.7095 38.5522 33.7095 37.9664C33.7095 37.382 33.7734 36.4883 33.8528 35.9805C33.9322 35.4742 34.162 34.5479 34.3648 33.9238C34.5676 33.2997 34.9264 32.406 35.1618 31.938C35.3973 31.4699 35.8469 30.7039 36.1603 30.2358C36.4737 29.7677 37.2169 28.9067 37.8111 28.3209C38.404 27.7365 39.3032 27.0159 39.8081 26.7209C40.3144 26.4273 41.2377 26.0244 41.8617 25.8258C42.4857 25.6273 43.0927 25.3748 43.209 25.2641C43.3253 25.1535 43.6132 25.0031 43.8473 24.9308C44.0813 24.8585 44.8471 24.7946 45.5492 24.7875ZM43.4927 28.4741C42.9864 28.6386 42.2191 28.9649 41.7908 29.2003C41.3625 29.4372 40.7555 29.8046 40.4434 30.0188C40.1314 30.233 39.6577 30.6571 39.3897 30.9606C39.1216 31.2642 38.6976 31.8316 38.4465 32.2216C38.1941 32.6117 37.7842 33.4415 37.5332 34.0656C37.2836 34.6898 36.9843 35.6798 36.8694 36.2642C36.7319 36.9664 36.6893 37.738 36.7418 38.5338C36.7857 39.1976 36.9418 40.155 37.0878 40.6614C37.2339 41.1692 37.5587 41.999 37.8111 42.5054C38.0622 43.0132 38.4806 43.7139 38.7387 44.0657C38.9968 44.4175 39.5173 44.9934 39.896 45.348C40.2747 45.7026 40.9044 46.209 41.2944 46.4757C41.6844 46.7409 42.3865 47.1296 42.8545 47.3395C43.3225 47.5494 44.2798 47.8657 44.9819 48.0431C45.8881 48.2714 46.6696 48.365 47.6766 48.3636C48.7048 48.3636 49.4068 48.2771 50.2294 48.0487C50.8535 47.8757 51.8108 47.5012 52.3568 47.2161C53.0475 46.8558 53.741 46.3097 54.6374 45.4175C55.5862 44.4756 56.0429 43.8927 56.3677 43.2146C56.6102 42.7083 56.9165 41.8458 57.0484 41.2997C57.1874 40.7168 57.2881 39.721 57.2895 38.8884C57.2909 37.8515 57.2073 37.165 56.9775 36.3352C56.8045 35.711 56.3989 34.6898 56.0755 34.0656C55.6216 33.1862 55.1706 32.6089 54.0658 31.4968C52.7497 30.172 52.5157 30.0032 51.0095 29.2755C50.1131 28.8429 48.9317 28.3904 48.3857 28.2713C47.8397 28.1507 47.1064 28.0244 46.7547 27.9904C46.403 27.9549 45.7335 27.9833 45.2655 28.0528C44.7975 28.1209 43.999 28.311 43.4927 28.4741ZM29.1924 30.3777L29.5356 30.7677C29.7228 30.9819 29.9157 31.3337 29.9625 31.5479C30.0093 31.7621 29.9611 32.1252 29.8561 32.355C29.7512 32.5848 29.4732 32.8869 29.2392 33.0287C28.8407 33.2685 28.2266 33.2841 19.4887 33.2855C11.4826 33.2855 10.104 33.2557 9.73813 33.0727C9.50411 32.9564 9.21053 32.6529 9.08431 32.399C8.94674 32.1181 8.89001 31.772 8.93965 31.5124C8.98503 31.2784 9.16657 30.9507 9.34385 30.7862C9.52255 30.6202 9.76224 30.4486 9.87995 30.406C9.99767 30.3621 14.39 30.3379 29.1924 30.3777Z" fill="white"/>
<path d="M7.89426 0.0553121C7.62196 0.0850955 7.10996 0.0850955 6.75965 0.0553121C6.40934 0.0255287 6.63201 0.00141826 7.25605 0C7.88008 0 8.16657 0.0241104 7.89426 0.0553121Z" fill="#CCCCEE" fill-opacity="0.38"/>
<path d="M43.7051 18.0726C36.2167 18.0924 23.9955 18.0924 16.5454 18.0726C9.0953 18.0527 15.2236 18.0357 30.1607 18.0357C45.0978 18.0357 51.1935 18.0527 43.7051 18.0726Z" fill="#CCCCEE" fill-opacity="0.77"/>
<path d="M13.071 0.0568075C12.681 0.0851726 11.9789 0.0851726 11.5109 0.0568075C11.0429 0.0284423 11.362 0.00575014 12.22 0.00433188C13.0781 0.00433188 13.461 0.027024 13.071 0.0568075Z" fill="white" fill-opacity="0.36"/>
<path d="M17.0421 0.0568075C16.5741 0.0851726 15.8409 0.0851726 15.4111 0.0568075C14.9814 0.0284423 15.3657 0.00575014 16.2621 0.00575014C17.1584 0.00575014 17.5101 0.0284423 17.0421 0.0568075Z" fill="white" fill-opacity="0.36"/>
<path d="M21.0132 0.0568075C20.5452 0.0851726 19.812 0.0851726 19.3822 0.0568075C18.9525 0.0284423 19.3369 0.00575014 20.2332 0.00575014C21.1295 0.00575014 21.4813 0.0284423 21.0132 0.0568075Z" fill="white" fill-opacity="0.36"/>
<path d="M24.9844 0.0568075C24.5163 0.0851726 23.7831 0.0851726 23.3534 0.0568075C22.9236 0.0284423 23.308 0.00575014 24.2043 0.00575014C25.1007 0.00575014 25.4524 0.0284423 24.9844 0.0568075Z" fill="white" fill-opacity="0.36"/>
<path d="M29.0973 0.0568075C28.7073 0.0851726 28.0053 0.0851726 27.5372 0.0568075C27.0692 0.0284423 27.3883 0.00575014 28.2464 0.00433188C29.1044 0.00433188 29.4873 0.027024 29.0973 0.0568075Z" fill="white" fill-opacity="0.36"/>
<path d="M33.0684 0.0568075C32.6784 0.0851726 31.9764 0.0851726 31.5084 0.0568075C31.0403 0.0284423 31.3594 0.00575014 32.2175 0.00433188C33.0755 0.00433188 33.4585 0.027024 33.0684 0.0568075Z" fill="white" fill-opacity="0.36"/>
<path d="M37.0396 0.0568075C36.6495 0.0851726 35.9475 0.0851726 35.4795 0.0568075C35.0115 0.0284423 35.3306 0.00575014 36.1886 0.00433188C37.0467 0.00433188 37.4296 0.027024 37.0396 0.0568075Z" fill="white" fill-opacity="0.36"/>
<path d="M41.0107 0.0568075C40.5427 0.0851726 39.808 0.0851726 39.3797 0.0568075C38.9514 0.0284423 39.3343 0.00575014 40.2306 0.00575014C41.127 0.00575014 41.4787 0.0284423 41.0107 0.0568075Z" fill="white" fill-opacity="0.36"/>
<path d="M44.9818 0.0568075C44.5138 0.0851726 43.7791 0.0851726 43.3508 0.0568075C42.9225 0.0284423 43.3054 0.00575014 44.2018 0.00575014C45.0981 0.00575014 45.4498 0.0284423 44.9818 0.0568075Z" fill="white" fill-opacity="0.36"/>
<path d="M49.0948 0.0568075C48.7047 0.0851726 48.0027 0.0851726 47.5347 0.0568075C47.0667 0.0284423 47.3858 0.00575014 48.2438 0.00433188C49.1019 0.00433188 49.4848 0.027024 49.0948 0.0568075Z" fill="white" fill-opacity="0.36"/>
<path d="M52.4277 0.0553892C52.0759 0.0851726 51.5342 0.0851726 51.2222 0.0553892C50.9101 0.0256058 51.1966 0.00149536 51.8604 0.00149536C52.5241 0.00149536 52.7794 0.0256058 52.4277 0.0553892Z" fill="white" fill-opacity="0.36"/>
<path d="M0.0553121 10.5903C0.0241104 10.8641 0 10.6087 0 10.0229C0 9.43709 0.0241104 9.2144 0.0553121 9.52646C0.0850955 9.83852 0.0850955 10.3165 0.0553121 10.5903Z" fill="white" fill-opacity="0.11"/>
<path d="M12.9288 33.3891C12.6168 33.4189 12.0424 33.4189 11.6524 33.3905C11.2624 33.3607 11.5177 33.3366 12.2197 33.3352C12.9218 33.3352 13.2409 33.3593 12.9288 33.3891Z" fill="white" fill-opacity="0.11"/>
<path d="M16.9 33.3891C16.588 33.4189 16.0136 33.4189 15.6235 33.3905C15.2335 33.3607 15.4888 33.3366 16.1908 33.3352C16.8929 33.3352 17.212 33.3593 16.9 33.3891Z" fill="white" fill-opacity="0.11"/>
<path d="M20.8002 33.3891C20.4499 33.4189 19.9067 33.4189 19.5947 33.3891C19.2826 33.3593 19.5691 33.3352 20.2329 33.3352C20.8966 33.3352 21.1519 33.3593 20.8002 33.3891Z" fill="white" fill-opacity="0.11"/>
<path d="M24.9841 33.3891C24.672 33.4189 24.0976 33.4189 23.7076 33.3905C23.3176 33.3607 23.5729 33.3366 24.2749 33.3352C24.977 33.3352 25.2961 33.3593 24.9841 33.3891Z" fill="white" fill-opacity="0.11"/>
<path d="M24.5587 39.4912C21.4385 39.5125 16.364 39.5125 13.2835 39.4912C10.2031 39.4699 12.7545 39.4529 18.9566 39.4529C25.1586 39.4529 27.6788 39.4699 24.5587 39.4912Z" fill="white" fill-opacity="0.4"/>
<path d="M0.0569633 27.8244C0.0300164 28.3705 0.00732422 27.9875 0.00732422 26.9733C0.00732422 25.9592 0.0285981 25.5123 0.0569633 25.9804C0.0839102 26.4485 0.0839102 27.2783 0.0569633 27.8244Z" fill="white" fill-opacity="0.64"/>
<path d="M0.0569167 24.2074C0.0299698 24.7932 0.00869589 24.3776 0.00727763 23.2854C0.00727763 22.1932 0.0299698 21.7151 0.0569167 22.2215C0.0838636 22.7279 0.0838636 23.6215 0.0569167 24.2074Z" fill="#CCCCEE" fill-opacity="0.55"/>
<path d="M0.0569167 31.1578C0.0299698 31.6642 0.00585938 31.3138 0.00585938 30.3776C0.00585938 29.4414 0.0285515 29.0273 0.0569167 29.4556C0.0838636 29.884 0.0852819 30.6514 0.0569167 31.1578Z" fill="#CCCCEE" fill-opacity="0.55"/>
<path d="M12.9999 30.2685C12.6496 30.2982 12.0113 30.2982 11.5816 30.2699C11.1519 30.2415 11.4398 30.2174 12.2198 30.2174C12.9999 30.216 13.3502 30.2401 12.9999 30.2685Z" fill="#CCCCEE" fill-opacity="0.16"/>
<path d="M16.971 30.2685C16.6207 30.2982 15.9825 30.2982 15.5527 30.2699C15.123 30.2415 15.4109 30.2174 16.1909 30.2174C16.971 30.216 17.3213 30.2401 16.971 30.2685Z" fill="#CCCCEE" fill-opacity="0.16"/>
<path d="M20.9421 30.2685C20.5918 30.2982 19.9536 30.2982 19.5239 30.2699C19.0941 30.2415 19.382 30.2174 20.1621 30.2174C20.9421 30.216 21.2924 30.2401 20.9421 30.2685Z" fill="#CCCCEE" fill-opacity="0.16"/>
<path d="M25.0551 30.2685C24.7048 30.2982 24.0665 30.2982 23.6368 30.2699C23.2071 30.2415 23.495 30.2174 24.275 30.2174C25.0551 30.216 25.4054 30.2401 25.0551 30.2685Z" fill="#CCCCEE" fill-opacity="0.16"/>
<path d="M28.2461 30.2685C27.9341 30.2982 27.4874 30.2982 27.2534 30.267C27.0194 30.2358 27.2746 30.2103 27.8207 30.2117C28.3667 30.2117 28.5582 30.2373 28.2461 30.2685Z" fill="#CCCCEE" fill-opacity="0.16"/>
<path d="M0.0568235 20.7322C0.0270401 21.1222 0.00292969 20.8343 0.00292969 20.0938C0.00292969 19.3534 0.0270401 19.0343 0.0568235 19.3846C0.0851887 19.735 0.0851887 20.3421 0.0568235 20.7322Z" fill="white" fill-opacity="0.46"/>
<path d="M3.17838 30.945C3.15711 33.3634 3.13867 31.4485 3.13867 26.6896C3.13867 21.9307 3.15711 19.952 3.17838 22.2924C3.19966 24.6329 3.19966 28.5265 3.17838 30.945Z" fill="white" fill-opacity="0.31"/>
<path d="M57.2141 22.7889C57.1885 23.6854 57.1687 22.9846 57.1687 21.2286C57.1687 19.4725 57.1885 18.7392 57.2141 19.5974C57.2382 20.4555 57.2382 21.8924 57.2141 22.7889Z" fill="white" fill-opacity="0.31"/>
<path d="M56.0086 8.64682C57.0368 8.60711 57.1092 8.58442 57.1191 8.28517C57.1262 8.08378 57.1574 8.04548 57.2028 8.1788C57.2425 8.2951 57.2368 8.47096 57.1914 8.56882C57.1333 8.69221 56.773 8.73759 54.9094 8.68937L56.0086 8.64682Z" fill="white" fill-opacity="0.36"/>
<path d="M8.88694 8.70781C8.61463 8.73759 8.10264 8.73759 7.75233 8.70781C7.40202 8.67803 7.62469 8.65392 8.24872 8.6525C8.87276 8.6525 9.15924 8.67661 8.88694 8.70781Z" fill="white" fill-opacity="0.36"/>
<path d="M12.7872 8.70781C12.4751 8.73759 11.9958 8.73759 11.7235 8.70781C11.4511 8.67661 11.705 8.6525 12.2908 8.6525C12.8765 8.6525 13.0992 8.67661 12.7872 8.70781Z" fill="white" fill-opacity="0.36"/>
<path d="M24.7005 8.70781C24.3885 8.73759 23.9418 8.73759 23.7077 8.70639C23.4737 8.67519 23.729 8.64966 24.275 8.65108C24.8211 8.65108 25.0125 8.67661 24.7005 8.70781Z" fill="white" fill-opacity="0.36"/>
<path d="M29.9481 8.70923C29.4021 8.73617 28.5398 8.73617 28.0334 8.70923C27.5271 8.68228 27.9725 8.65959 29.0262 8.65959C30.08 8.65959 30.4941 8.68228 29.9481 8.70923Z" fill="white" fill-opacity="0.36"/>
<path d="M33.9901 8.70923C33.4058 8.73617 32.5109 8.73617 32.0046 8.70923C31.4982 8.68228 31.9762 8.65959 33.0683 8.65959C34.1603 8.66101 34.5759 8.68228 33.9901 8.70923Z" fill="white" fill-opacity="0.36"/>
<path d="M36.9685 8.70781C36.6947 8.73759 36.1856 8.73759 35.8339 8.70781C35.4821 8.67803 35.7062 8.65392 36.3303 8.6525C36.9543 8.6525 37.2422 8.67661 36.9685 8.70781Z" fill="white" fill-opacity="0.36"/>
<path d="M40.9396 8.70781C40.5879 8.73759 40.0461 8.73759 39.7341 8.70781C39.4221 8.67803 39.7085 8.65392 40.3723 8.65392C41.036 8.65392 41.2913 8.67803 40.9396 8.70781Z" fill="white" fill-opacity="0.36"/>
<path d="M52.7821 8.70781C52.47 8.73759 52.0233 8.73759 51.7893 8.70639C51.5553 8.67519 51.8106 8.64966 52.3566 8.65108C52.9026 8.65108 53.0941 8.67661 52.7821 8.70781Z" fill="white" fill-opacity="0.36"/>
<path d="M43.1379 3.037C36.1176 3.05685 24.5985 3.05685 17.5384 3.037C10.4783 3.01714 16.2222 3.00012 30.3027 3.00012C44.3832 3.00012 50.1583 3.01714 43.1379 3.037Z" fill="white" fill-opacity="0.4"/>
<path d="M57.2114 7.54063C57.1816 7.85269 57.1575 7.53354 57.1575 6.8314C57.1589 6.12927 57.183 5.87395 57.2128 6.26402C57.2411 6.65409 57.2411 7.22857 57.2114 7.54063Z" fill="white" fill-opacity="0.31"/>
<path d="M49.035 35.8387C50.8589 33.928 52.4473 32.2854 52.5664 32.1904C52.6856 32.0954 52.9579 32.0159 53.172 32.0131C53.3862 32.0103 53.7379 32.0954 53.9521 32.2018C54.1662 32.3081 54.4542 32.6273 54.5903 32.911C54.7265 33.1947 54.8385 33.5238 54.8385 33.6401C54.8385 33.7578 54.7648 33.9961 54.6754 34.172C54.5861 34.3479 53.4543 35.6089 52.1594 36.9734C50.8645 38.3394 48.9754 40.3181 47.9628 41.3706C46.9487 42.4245 45.9914 43.3635 45.834 43.4572C45.678 43.5522 45.3248 43.6316 45.0525 43.6331C44.5973 43.6373 44.3505 43.4316 42.0401 41.121C39.5724 38.6529 39.5241 38.5933 39.5227 38.0018C39.5213 37.5266 39.6092 37.3096 39.9354 36.9734C40.273 36.6273 40.4659 36.5493 40.9637 36.5521C41.5579 36.5564 41.6345 36.6131 45.0568 40.0231L45.3886 39.6685C45.5716 39.4742 47.2125 37.7507 49.035 35.8387Z" fill="white"/>
<path d="M45.2995 39.7465C45.0541 40.016 45.013 39.9862 43.5266 38.4642L42.0034 36.9039L43.5195 38.3933C44.9094 39.7564 45.0569 39.8642 45.2924 39.6756C45.5391 39.4798 45.5391 39.4826 45.2995 39.7465Z" fill="white" fill-opacity="0.64"/>
<path d="M43.0672 42.2232C43.0289 42.2232 42.2304 41.4572 41.2944 40.5196C40.3583 39.582 39.6421 38.8161 39.7031 38.8161C39.7641 38.8175 40.5626 39.5835 41.4759 40.521C42.3907 41.4572 43.1055 42.2232 43.0672 42.2232Z" fill="#CCCCEE" fill-opacity="0.55"/>
</svg>
