<svg width="60" height="60" viewBox="0 0 60 60" fill="none" xmlns="http://www.w3.org/2000/svg">
<path fill-rule="evenodd" clip-rule="evenodd" d="M54.343 19.7468C57.5671 22.0691 59.7564 25.6681 59.7564 29.8782C59.7564 34.0883 57.5671 37.69 54.343 40.0096C54.9949 43.9264 53.979 48.0441 51.0102 51.0102C48.036 53.9844 43.9209 54.9731 40.0205 54.3375C37.709 57.5725 34.0774 59.7564 29.8782 59.7564C25.6681 59.7564 22.061 57.5644 19.744 54.3348C15.8382 54.9731 11.7204 53.9872 8.74344 51.0102C5.7692 48.036 4.78051 43.9182 5.43783 40.0096C2.21642 37.6927 0 34.091 0 29.8782C0 25.6654 2.21642 22.061 5.43783 19.7468C4.78051 15.8382 5.7692 11.7204 8.74616 8.74616C11.715 5.77464 15.8354 4.7615 19.7658 5.41338C22.0691 2.18382 25.6762 0 29.8782 0C34.0747 0 37.7008 2.18111 40.015 5.41338C43.9318 4.7615 48.0441 5.78007 51.0102 8.74616C53.979 11.7122 54.9976 15.83 54.343 19.7468ZM42.3211 19.5186C42.6115 19.7258 42.8582 19.9882 43.0471 20.2908C43.2361 20.5934 43.3636 20.9302 43.4224 21.2821C43.4811 21.6339 43.47 21.9939 43.3896 22.3415C43.3093 22.689 43.1612 23.0174 42.954 23.3077L29.373 42.3211C29.1437 42.6422 28.8473 42.9095 28.5042 43.1044C28.1612 43.2993 27.7798 43.4171 27.3866 43.4497C26.9934 43.4823 26.5979 43.4288 26.2274 43.293C25.857 43.1572 25.5206 42.9423 25.2416 42.6633L17.093 34.5147C16.5983 34.0024 16.3245 33.3163 16.3307 32.6042C16.3369 31.892 16.6225 31.2107 17.1261 30.7071C17.6297 30.2035 18.311 29.9178 19.0232 29.9117C19.7353 29.9055 20.4215 30.1792 20.9337 30.674L26.8143 36.5546L38.532 20.1488C38.9509 19.5628 39.5854 19.1672 40.296 19.049C41.0066 18.9308 41.735 19.0997 42.3211 19.5186Z" fill="white"/>
</svg>
