<svg width="98" height="55" viewBox="0 0 98 55" fill="none" xmlns="http://www.w3.org/2000/svg">
<path d="M33.273 35.1064C33.168 35.0384 31.4128 33.4594 30.9772 32.897C30.5507 32.3347 29.7288 32.1863 29.2993 31.9608C28.8667 31.7352 26.0115 30.7958 25.3255 31.2841C24.6488 31.7692 23.7156 32.0689 23.3541 31.2841C22.9988 30.493 22.8195 30.3818 22.319 30.2705C21.8184 30.1593 22.0687 29.5598 22.0347 29.0345C21.9945 28.5062 21.7102 27.9469 21.3518 28.3238C20.9934 28.7008 19.7759 29.6742 19.5998 29.1798C19.4205 28.6977 18.5584 26.6707 19.8501 26.2937C21.1355 25.9198 22.2108 26.1423 22.5353 26.4791C22.8566 26.8159 23.1038 27.7553 23.5024 27.6409C23.898 27.5266 23.6817 26.8128 23.8238 26.2165C23.9659 25.6232 24.9022 24.8321 25.3255 24.0071C25.755 23.179 25.8261 22.6939 26.3607 22.4652C26.9045 22.2427 27.1888 21.943 27.6894 21.566C28.1931 21.189 28.9748 20.8584 29.2684 20.6637C29.5558 20.4721 30.8412 19.8387 31.2676 19.953C31.6971 20.0674 31.9814 19.9129 31.6261 19.2763C31.2676 18.6398 30.8041 16.7271 30.1243 15.865C29.4445 15.0028 29.3704 14.7711 29.049 13.9522C28.7276 13.1241 28.3661 12.4134 28.1158 12.9758C27.8655 13.5413 27.3309 14.2921 27.0436 13.5753C26.7593 12.8646 26.7933 12.8985 26.4349 12.5617C26.0795 12.228 25.789 12.1477 25.2915 11.9994C24.791 11.8479 24.2904 12.0364 24.3244 12.5247C24.3584 13.016 23.8547 13.8812 24.1822 14.5177C24.5036 15.1573 24.791 15.8341 24.3584 16.0565C23.9319 16.279 24.3584 17.6355 23.9319 17.5923C23.5024 17.5583 23.2892 17.6355 23.2892 17.1411C23.2892 16.656 23.5024 15.9051 22.7114 15.9051C21.9265 15.9051 21.4599 15.4942 20.8883 15.0801C20.3136 14.6691 19.8501 14.8885 19.9922 13.9553C20.1343 13.016 19.9242 12.6792 20.5638 12.1539C21.2097 11.6316 21.3549 11.3288 21.8184 11.5544C22.285 11.78 22.6032 11.78 22.8968 11.5173C23.1811 11.2547 23.7156 11.3659 23.7156 11.0291C23.7156 10.6954 23.1069 10.6954 23.1811 10.133C23.2491 9.56444 23.5395 9.86725 23.6446 8.92789C23.7496 7.99162 22.9648 6.56713 22.1768 6.75253C21.3858 6.94411 20.1745 8.0287 19.9242 7.54048C19.6708 7.05226 19.1703 7.27783 18.2031 7.61464C17.2359 7.95145 13.2282 7.27783 12.9439 6.93793C12.9439 6.93793 12.261 6.4528 11.9026 6.71545C11.5472 6.9781 10.1135 6.86377 9.68394 6.78961C9.25134 6.71545 8.85891 7.27474 8.32743 7.09243C7.78359 6.90085 5.88942 6.52696 5.463 6.22723C5.02731 5.9275 4.3815 5.9275 4.1034 5.77918C3.81603 5.62468 2.7747 5.55361 2.56458 5.85025C2.35137 6.14998 1.56341 6.67837 1.16789 7.04917C0.775464 7.42615 0.315053 7.35508 0.704394 8.14303C1.09682 8.92789 -0.296768 9.4192 0.0585829 10.2782C0.413933 11.1342 -0.0124872 13.4609 1.41818 13.9152C2.85195 14.3663 4.03233 14.6259 4.85427 13.9553C5.68239 13.2786 6.93384 13.2786 7.32627 14.0295C7.7187 14.7773 7.935 15.902 9.22044 16.5386C10.5059 17.1813 11.6183 19.0198 11.5472 19.8449C11.4792 20.6699 11.5874 23.4046 12.9037 24.9836C14.2324 26.5595 15.592 29.4115 15.694 28.7348C15.8021 28.0581 15.8021 27.3814 16.0926 27.8696C16.3738 28.3609 17.1278 29.8627 18.3452 30.1222C19.5658 30.3849 20.1745 30.4559 20.6349 30.9133C21.0984 31.3613 21.497 31.6209 21.9945 31.8495C22.4951 32.0751 23.7126 32.7518 23.9628 33.203C24.2162 33.6541 24.1081 34.2536 23.8547 34.9303C23.6075 35.607 23.3201 36.2806 23.6755 36.9202C24.037 37.5568 24.7879 39.3984 25.3997 39.8094C26.0084 40.2234 26.611 40.8971 26.4688 41.8364C26.3267 42.7665 25.6469 46.7804 25.718 47.6827C25.7921 48.5788 24.8991 51.5421 25.6129 52.7441C26.3267 53.9461 27.5503 54.3231 28.0849 54.1655C28.6195 54.0203 28.1931 53.9801 27.9397 53.4178C27.6894 52.8523 27.7234 52.1416 28.0107 51.6194C28.3012 51.091 28.3012 50.7913 28.156 50.1918C28.0108 49.5954 28.0849 49.2524 28.4403 48.8075C28.8018 48.3563 30.3035 47.1574 30.7701 46.6321C31.2305 46.1068 34.1722 42.5039 34.5646 42.201C34.9571 41.9013 35.8501 41.1906 36.1405 40.0689C36.4279 38.9442 37.4631 36.7317 36.7493 36.1632C36.0293 35.5977 33.3812 35.1836 33.273 35.1064Z" fill="white"/>
<path d="M40.4292 3.45233C40.6331 3.05681 41.1276 2.05874 41.3933 1.51181H30.053C30.1889 2.11436 30.6803 4.34843 30.5876 5.25381C30.4794 6.3075 30.8038 5.93361 31.0881 6.34767C31.3755 6.75864 31.3044 7.39827 31.1252 7.8834C30.9429 8.37162 30.8378 9.4593 31.4157 10.7355C31.9842 12.0116 32.664 13.6215 33.2357 13.6988C33.8135 13.7729 33.6683 14.598 34.0638 14.2982C34.4562 13.9923 34.5242 13.3249 34.8518 12.3485C35.1731 11.3751 35.1731 10.6582 35.9981 10.1731C36.8232 9.68487 39.1098 8.11206 39.6104 7.5435C40.114 6.98111 40.6857 6.75555 40.5065 5.78529C40.3211 4.80575 40.1449 4.0178 40.4292 3.45233Z" fill="white"/>
<path d="M96.2626 7.8803C95.8331 7.58057 93.2591 5.51954 92.1467 5.78219C91.0436 6.04484 89.0691 5.17964 88.7477 4.99115C88.4264 4.80266 85.7813 3.99308 84.3846 3.94055C83.6894 3.91583 80.7693 3.26692 79.5488 2.74471C78.3313 2.21941 77.2962 -0.366918 74.9725 0.0440525C74.6728 0.0996725 71.8609 0.495192 71.144 1.13482C70.4333 1.77445 70.1057 2.51914 69.7133 2.67055C69.3209 2.82196 68.1745 2.74472 68.1745 3.31019C68.1745 3.87257 68.57 5.59988 68.1065 5.25998C67.6399 4.92317 67.1733 4.13522 66.9632 4.73468C66.75 5.33723 66.3823 5.67404 66.1722 5.44538C65.962 5.2229 64.8775 5.44538 64.7384 5.82236C64.5963 6.19934 63.1996 7.05527 62.597 7.17578C61.9883 7.28702 61.7349 7.58984 61.4136 7.74125C61.0922 7.88957 58.6542 9.01742 58.1938 8.60027C57.7272 8.1893 57.585 8.45195 57.2977 8.5292C57.2977 8.5292 56.4386 8.37779 55.9041 7.70108C55.3633 7.02746 55.2583 7.24994 54.6495 6.6134C54.0439 5.97686 53.8987 5.34032 53.2899 5.60297C52.6874 5.86253 50.1103 8.52611 49.1061 9.72503C48.108 10.9301 46.3158 12.163 47.2088 13.0252C48.108 13.8873 48.5684 13.776 48.6797 14.2581C48.7909 14.7432 48.896 15.2716 49.0381 15.4632C49.1802 15.6517 50.0393 16.3222 50.4688 15.423C50.9045 14.5207 50.9693 13.8873 51.473 14.0387C51.9736 14.187 52.0787 14.5269 51.8253 15.2005C51.575 15.8772 51.3989 16.9247 50.5398 16.8877C49.6808 16.8506 48.7538 16.3222 48.4603 16.4365C48.176 16.5478 48.0029 16.8104 47.6754 17.0731C47.354 17.3357 46.3498 18.5717 45.67 18.7602C44.9933 18.9518 44.1713 18.7973 44.6348 19.3566C45.0983 19.9159 45.7781 21.158 45.1354 21.121C44.4927 21.0808 43.4174 20.9726 43.3463 21.6092C43.2752 22.2426 42.991 22.6196 43.1331 23.0708C43.2752 23.5219 43.7418 24.384 44.3104 24.0843C44.8913 23.7784 45.9975 23.4848 46.2818 22.8081C46.5692 22.1314 46.8936 21.3867 47.6074 21.4207C48.3212 21.4578 50.0423 22.3971 49.9342 22.7339C49.826 23.0708 49.4707 23.8587 49.9002 23.5961C50.3266 23.3334 50.6851 23.0337 50.9354 22.9224C51.1856 22.8081 51.5132 23.2994 51.6152 23.4848C51.7233 23.6764 52.4402 24.0472 52.5823 23.4446C52.7276 22.8452 52.8697 23.2994 53.293 23.4848C53.7287 23.6764 55.0142 23.8216 55.1872 23.973C55.3726 24.1214 55.765 24.5725 55.2614 25.172C54.7608 25.7714 54.1829 26.0032 53.3641 25.5489C52.5391 25.0978 51.643 25.9259 50.7191 25.4748C49.7859 25.0236 50.2154 24.3871 49.1061 23.939C48.0029 23.4879 45.4939 24.0472 44.7028 24.2728C43.9149 24.4952 43.8809 24.5756 43.5595 24.9464C43.2382 25.3234 41.1277 27.7583 41.1277 29.1457C41.1277 30.5331 41.9125 34.2875 44.4525 33.9105C46.9956 33.5335 48.5344 33.7591 48.2501 34.5069C47.9597 35.2608 48.108 35.4462 48.5715 36.3083C49.035 37.1673 50.1134 42.9086 50.2895 43.8418C50.4719 44.7842 50.1505 45.98 51.3309 45.7915C52.5143 45.6061 53.7658 45.3095 54.2633 44.2187C54.767 43.1311 54.8411 41.8951 55.4838 41.2585C56.1296 40.6189 56.9176 40.6189 56.9856 39.7197C57.0536 38.8174 56.8064 36.6853 57.2359 36.1909C57.6654 35.7058 59.6677 33.4532 59.8809 32.554C60.0972 31.6548 60.3815 31.4292 59.5596 31.4292C58.7376 31.4292 57.3409 31.318 56.9423 30.5671C56.553 29.8162 55.6198 28.3917 55.6198 28.058C55.6198 27.7212 56.1945 27.7552 56.4757 28.469C56.7631 29.1766 57.7612 31.3211 58.9076 30.8637C60.054 30.4126 61.6669 29.8935 61.7009 29.1766C61.7349 28.469 61.2003 27.6409 60.6225 27.6841C60.0478 27.7212 59.4421 27.3071 59.4421 26.8962C59.4421 26.4821 59.5472 26.6366 60.227 26.8962C60.913 27.1588 61.1231 27.6038 62.1613 27.6841C63.1996 27.7552 64.383 28.7687 64.9516 29.223C65.5264 29.6741 66.5244 32.7486 66.7778 33.0453C67.025 33.3512 67.3186 33.3512 67.5658 32.7456C67.8191 32.143 68.8914 30.2365 69.5001 29.705C70.1088 29.1797 70.1428 28.4721 70.4982 28.9201C70.8566 29.3713 72.3954 30.496 72.5036 31.1727C72.6117 31.8464 72.4325 33.3079 72.7539 32.8599C73.0752 32.4087 73.3286 31.4725 73.6067 31.8865C73.8972 32.3037 73.8972 32.9402 74.5739 32.452C75.2568 31.9669 76.4371 31.7753 75.7944 30.7247C75.1517 29.6741 75.5812 29.0375 75.9798 29.0005C76.3723 28.9603 79.0575 28.4752 79.1285 27.0074C79.1996 25.5458 78.1954 24.7579 78.6712 24.007C79.1285 23.2562 79.8083 22.5825 79.9567 23.0337C80.0988 23.4848 79.5982 24.9433 80.2409 24.7208C80.8868 24.4952 81.6376 24.4952 81.6376 24.041C81.6376 23.5899 81.4924 22.462 81.7829 22.1685C82.0702 21.8687 84.1745 19.8819 84.4279 19.0939C84.6782 18.306 85.1448 17.6323 84.7493 17.0329C84.3537 16.4334 83.677 16.6188 84.2116 15.871C84.7493 15.1202 85.6454 14.428 86.3252 14.3693C88.4974 14.1808 87.8856 16.8691 87.9196 17.4655C87.9629 18.0649 87.9629 19.5698 88.2811 18.8189C88.6025 18.068 88.9764 17.1472 89.6222 16.5107C90.268 15.8741 90.6203 15.4601 90.6635 14.8977C90.7006 14.3353 90.7284 14.1499 91.3433 13.8471C91.9521 13.5474 94.6342 12.4968 94.8845 11.7861C95.1317 11.0785 94.5631 10.4326 95.2058 10.4759C95.8486 10.5099 96.4573 11.2237 96.7817 10.8498C97.1062 10.4759 97.82 9.80228 97.7829 9.4253C97.7396 9.04523 96.6983 8.18003 96.2626 7.8803Z" fill="white"/>
<path d="M84.7092 20.4814C84.4929 20.9727 84.3879 21.0469 84.0665 22.0604C83.739 23.0708 83.8471 22.8082 83.5227 23.4447C83.2013 24.0843 82.6698 24.1523 82.1291 24.5726C81.5883 24.9866 81.4462 25.8055 81.4462 25.8055C80.9827 26.442 83.3435 24.9032 84.1654 24.4181C84.9904 23.9329 84.7772 23.3675 84.8483 22.5795C84.9194 21.7916 85.1418 21.6772 85.491 21.3404C85.8464 21.0067 85.5621 20.33 85.3921 19.8448C85.2036 19.3535 84.9194 19.9963 84.7092 20.4814Z" fill="white"/>
<path d="M77.3702 37.5073C77.6174 37.3188 77.4382 36.9078 77.8306 36.982C78.2261 37.0531 78.5815 37.2848 79.0543 37.0222C79.5147 36.7564 79.9102 36.8677 79.8391 36.4227C79.7711 35.9716 79.8391 35.3721 79.7341 35.0013C79.6259 34.6243 78.9832 34.51 78.5135 34.9272C78.0531 35.3412 77.4104 35.9778 77.4104 35.7491C77.4104 35.5297 77.6916 34.9271 77.5494 34.5502C77.4104 34.1763 77.6174 33.8395 76.9067 34.1392C76.1898 34.4389 75.7974 34.3648 75.5471 34.7788C75.2968 35.1929 75.0094 35.9036 74.583 35.4525C74.1504 35.0044 72.899 34.0681 72.899 34.0681C72.797 33.9538 71.3663 32.7889 71.8669 33.5799C72.3644 34.371 73.1153 35.7182 73.4768 36.2064C73.8291 36.6946 74.2246 37.257 74.6541 36.9944C75.0867 36.7317 75.1578 36.6576 75.7325 36.9944C76.2918 37.3219 77.1199 37.6958 77.3702 37.5073Z" fill="white"/>
<path d="M86.1428 36.4598C85.4568 36.16 85.7442 35.8943 84.9191 35.7491C84.0941 35.6038 83.4174 35.7491 83.198 35.6007C82.9817 35.4493 81.9126 35.0754 82.0547 35.6007C82.1999 36.1291 83.164 36.2744 83.4112 36.4258C83.6615 36.5772 83.0559 36.914 83.5163 37.1736C83.9798 37.4331 84.3042 37.9244 84.913 37.773C85.5217 37.6216 85.738 37.9615 86.2324 38.0357C86.7361 38.1098 87.2366 37.9615 87.0296 37.7329C86.8133 37.5104 86.6743 37.2076 86.7083 36.948C86.7422 36.6853 86.8164 36.7564 86.1428 36.4598Z" fill="white"/>
<path d="M85.7815 39.797C85.5312 39.0461 84.9225 37.6618 84.7834 38.3323C84.6382 39.009 83.671 39.491 83.3095 39.454C82.9819 39.42 83.1673 39.0801 83.1673 38.7773C83.1673 38.4775 82.9789 38.1778 82.1631 38.4034C81.335 38.6289 81.165 39.4169 80.9425 39.3427C80.7324 39.2717 80.1546 39.1172 79.7992 39.5343C79.4439 39.9484 79.1163 40.7332 78.693 40.8846C78.2573 41.0361 76.8267 41.2215 76.8267 41.8271C76.8267 42.4235 77.1882 43.3227 77.1511 43.814C77.114 44.3053 76.4589 45.4239 77.3303 45.7638C77.8309 45.9615 78.1863 45.9893 78.7672 45.6927C79.3388 45.3899 81.8047 44.6019 82.1291 44.8615C82.4505 45.1241 82.9727 45.7421 83.2044 45.875C83.6587 46.1438 83.7823 46.7742 84.391 46.9225C84.9904 47.0739 85.4632 47.1481 85.7104 47.1481C85.9638 47.1481 86.8537 46.8483 87.07 46.32C87.2832 45.7916 87.6787 44.5587 87.858 43.9561C88.0434 43.3566 88.2133 42.683 87.6787 42.1546C87.1411 41.6355 86.0318 40.5478 85.7815 39.797Z" fill="white"/>
</svg>
