<?xml version="1.0" encoding="UTF-8"?>
<svg id="Layer_1" data-name="Layer 1" xmlns="http://www.w3.org/2000/svg" viewBox="0 0 1080 1080">
  <defs>
    <style>
      .cls-1 {
        fill: #78c841;
      }

      .cls-2 {
        fill: #95f985;
      }
    </style>
  </defs>
  <g>
    <path class="cls-1" d="M287.55,816.18h-12.24v-6.92c-1.07,1.27-2.36,2.44-3.86,3.51-1.5,1.07-3.11,1.99-4.81,2.76-1.71.77-3.5,1.37-5.37,1.81-1.87.43-3.68.65-5.42.65-3.61,0-7.04-.69-10.28-2.06-3.24-1.37-6.12-3.36-8.63-5.97-2.51-2.61-4.5-5.77-5.97-9.48-1.47-3.71-2.21-7.87-2.21-12.49,0-4.28.73-8.21,2.21-11.79,1.47-3.58,3.46-6.67,5.97-9.28,2.51-2.61,5.45-4.65,8.83-6.12,3.38-1.47,7-2.21,10.88-2.21,2.81,0,5.33.44,7.57,1.3,2.24.87,4.15,1.82,5.72,2.86,1.57,1.04,2.79,2.04,3.66,3.01.87.97,1.37,1.55,1.5,1.75h.2v-7.02h12.24v55.67ZM274.91,788.2c0-2.87-.47-5.4-1.4-7.57-.94-2.17-2.17-3.98-3.71-5.42-1.54-1.44-3.28-2.52-5.22-3.26-1.94-.74-3.91-1.1-5.92-1.1-2.74,0-5.15.54-7.22,1.6-2.07,1.07-3.8,2.46-5.17,4.16-1.37,1.71-2.41,3.61-3.11,5.72-.7,2.11-1.05,4.2-1.05,6.27,0,2.34.42,4.56,1.25,6.67.84,2.11,1.99,3.93,3.46,5.47,1.47,1.54,3.21,2.76,5.22,3.66,2.01.9,4.21,1.35,6.62,1.35,2.27,0,4.41-.43,6.42-1.3,2.01-.87,3.73-2.07,5.17-3.61,1.44-1.54,2.57-3.38,3.41-5.52.84-2.14,1.25-4.51,1.25-7.12Z"/>
    <path class="cls-1" d="M364.78,760.52v45.44c0,4.48-.5,8.39-1.5,11.74s-2.34,6.23-4.01,8.68c-1.67,2.44-3.58,4.46-5.72,6.07-2.14,1.61-4.33,2.87-6.57,3.81-2.24.94-4.46,1.6-6.67,2.01s-4.18.6-5.92.6c-2.88,0-5.72-.38-8.52-1.15-2.81-.77-5.45-1.91-7.92-3.41-2.47-1.5-4.71-3.41-6.72-5.72-2.01-2.31-3.61-5.03-4.81-8.17h15.25c1.27,1.54,2.61,2.72,4.01,3.56,1.4.83,2.74,1.45,4.01,1.86,1.27.4,2.41.63,3.41.7,1,.07,1.77.1,2.31.1,1.87,0,3.78-.33,5.72-1,1.94-.67,3.73-1.71,5.37-3.11,1.64-1.4,2.99-3.21,4.06-5.42,1.07-2.21,1.71-4.81,1.91-7.82l-.2-.2c-.47.6-1.15,1.42-2.06,2.46-.9,1.04-2.07,2.02-3.51,2.96-1.44.94-3.21,1.75-5.32,2.46-2.11.7-4.56,1.05-7.37,1.05-3.41,0-6.8-.7-10.18-2.11-3.38-1.4-6.42-3.41-9.13-6.02-2.71-2.61-4.91-5.77-6.62-9.48s-2.56-7.91-2.56-12.59c0-4.35.82-8.31,2.46-11.88,1.64-3.58,3.78-6.65,6.42-9.23,2.64-2.57,5.67-4.56,9.08-5.97s6.89-2.11,10.43-2.11c2.87,0,5.35.35,7.42,1.05,2.07.7,3.81,1.54,5.22,2.51,1.4.97,2.51,1.94,3.31,2.91.8.97,1.4,1.72,1.81,2.26h.2v-6.82h12.94ZM351.44,787.8c0-2.01-.39-4.01-1.15-6.02-.77-2.01-1.87-3.81-3.31-5.42-1.44-1.6-3.16-2.92-5.17-3.96-2.01-1.04-4.25-1.55-6.72-1.55-2.01,0-3.98.4-5.92,1.2-1.94.8-3.68,1.94-5.22,3.41-1.54,1.47-2.78,3.26-3.71,5.37-.94,2.11-1.4,4.46-1.4,7.07,0,2.81.48,5.33,1.45,7.57.97,2.24,2.24,4.11,3.81,5.62,1.57,1.5,3.36,2.66,5.37,3.46,2.01.8,4.01,1.2,6.02,1.2s3.96-.42,5.87-1.25c1.91-.84,3.61-2.02,5.11-3.56,1.5-1.54,2.71-3.41,3.61-5.62.9-2.21,1.35-4.71,1.35-7.52Z"/>
    <path class="cls-1" d="M384.84,760.52h12.24v4.92h.2c.6-.87,1.24-1.72,1.91-2.56.67-.83,1.45-1.57,2.36-2.21.9-.63,1.97-1.14,3.21-1.5,1.24-.37,2.72-.55,4.46-.55h1.1v12.94c-3.01.13-5.35.75-7.02,1.86-1.67,1.1-2.88,2.36-3.61,3.76-.74,1.4-1.17,2.84-1.3,4.31-.13,1.47-.2,2.61-.2,3.41v31.29h-13.34v-55.67Z"/>
    <path class="cls-1" d="M452.84,817.99c-4.15,0-8.02-.79-11.63-2.36s-6.75-3.71-9.43-6.42c-2.68-2.71-4.78-5.85-6.32-9.43-1.54-3.58-2.31-7.37-2.31-11.38,0-4.21.8-8.14,2.41-11.79,1.6-3.64,3.76-6.79,6.47-9.43,2.71-2.64,5.85-4.73,9.43-6.27,3.58-1.54,7.37-2.31,11.38-2.31s7.69.74,11.23,2.21c3.54,1.47,6.67,3.53,9.38,6.17,2.71,2.64,4.86,5.77,6.47,9.38,1.6,3.61,2.41,7.56,2.41,11.83,0,4.55-.82,8.66-2.46,12.34-1.64,3.68-3.81,6.8-6.52,9.38-2.71,2.58-5.83,4.56-9.38,5.97-3.54,1.4-7.26,2.11-11.13,2.11ZM452.84,805.75c2.41,0,4.61-.48,6.62-1.46,2.01-.97,3.71-2.26,5.12-3.86,1.4-1.6,2.49-3.44,3.26-5.52.77-2.07,1.15-4.21,1.15-6.42,0-2.54-.45-4.88-1.35-7.02-.9-2.14-2.11-4-3.61-5.57-1.5-1.57-3.23-2.81-5.17-3.71-1.94-.9-3.95-1.35-6.02-1.35-1.74,0-3.56.37-5.47,1.1-1.91.74-3.66,1.84-5.27,3.31-1.6,1.47-2.94,3.31-4.01,5.52-1.07,2.21-1.6,4.75-1.6,7.62,0,2.61.45,4.98,1.35,7.12.9,2.14,2.12,3.96,3.66,5.47,1.54,1.5,3.28,2.67,5.22,3.51,1.94.84,3.98,1.25,6.12,1.25Z"/>
    <path class="cls-1" d="M499.58,741.96h13.34v23.57c2.34-2.34,5.03-4.08,8.07-5.22,3.04-1.14,6.13-1.71,9.28-1.71,4.21,0,8.04.85,11.48,2.56,3.44,1.71,6.38,3.93,8.83,6.67,2.44,2.74,4.33,5.88,5.67,9.43,1.34,3.54,2.01,7.16,2.01,10.83,0,2.81-.49,5.94-1.45,9.38-.97,3.45-2.56,6.69-4.76,9.73-2.21,3.04-5.06,5.6-8.58,7.67-3.51,2.07-7.81,3.11-12.89,3.11-2.67,0-5-.27-6.97-.8-1.97-.54-3.7-1.22-5.17-2.06-1.47-.84-2.74-1.76-3.81-2.76-1.07-1-2.01-1.97-2.81-2.91v6.72h-12.24v-74.22ZM512.12,787.6c0,3.08.5,5.75,1.5,8.02,1,2.27,2.31,4.16,3.91,5.67,1.6,1.5,3.41,2.62,5.42,3.36,2.01.74,3.98,1.1,5.92,1.1,2.21,0,4.28-.4,6.22-1.2,1.94-.8,3.63-1.97,5.06-3.51,1.44-1.54,2.59-3.38,3.46-5.52.87-2.14,1.3-4.58,1.3-7.32s-.45-5.1-1.35-7.27c-.9-2.17-2.11-4-3.61-5.47s-3.24-2.61-5.22-3.41c-1.97-.8-4-1.2-6.07-1.2-2.54,0-4.83.49-6.87,1.45-2.04.97-3.78,2.26-5.22,3.86-1.44,1.6-2.54,3.41-3.31,5.42-.77,2.01-1.15,4.01-1.15,6.02Z"/>
    <path class="cls-1" d="M577.41,760.52h12.24v4.92h.2c.6-.87,1.24-1.72,1.91-2.56.67-.83,1.45-1.57,2.36-2.21.9-.63,1.97-1.14,3.21-1.5,1.24-.37,2.72-.55,4.46-.55h1.1v12.94c-3.01.13-5.35.75-7.02,1.86-1.67,1.1-2.88,2.36-3.61,3.76-.74,1.4-1.17,2.84-1.3,4.31-.13,1.47-.2,2.61-.2,3.41v31.29h-13.34v-55.67Z"/>
    <path class="cls-1" d="M618.53,741.96h13.34v12.24h-13.34v-12.24ZM618.53,760.52h13.34v55.67h-13.34v-55.67Z"/>
    <path class="cls-1" d="M709.3,816.18h-12.24v-6.82h-.2c-.6,1-1.44,2.02-2.51,3.06-1.07,1.04-2.34,1.96-3.81,2.76-1.47.8-3.16,1.47-5.06,2.01-1.91.53-4.03.8-6.37.8-3.54,0-7.02-.7-10.43-2.11-3.41-1.4-6.44-3.39-9.08-5.97-2.64-2.57-4.78-5.68-6.42-9.33-1.64-3.64-2.46-7.71-2.46-12.19s.85-8.86,2.56-12.54c1.71-3.68,3.91-6.8,6.62-9.38,2.71-2.57,5.75-4.53,9.13-5.87,3.38-1.34,6.74-2.01,10.08-2.01,4.08,0,7.42.62,10.03,1.86,2.61,1.24,4.88,2.89,6.82,4.96v-23.47h13.34v74.22ZM664.07,787.9c0,2.61.45,5,1.35,7.17.9,2.17,2.11,4.05,3.61,5.62,1.5,1.57,3.24,2.81,5.22,3.71,1.97.9,4.06,1.35,6.27,1.35,2.47,0,4.73-.52,6.77-1.55,2.04-1.04,3.78-2.37,5.22-4.01,1.44-1.64,2.54-3.49,3.31-5.57.77-2.07,1.15-4.18,1.15-6.32,0-2.27-.42-4.46-1.25-6.57-.84-2.11-1.99-3.96-3.46-5.57-1.47-1.61-3.21-2.89-5.22-3.86-2.01-.97-4.18-1.45-6.52-1.45-2.47,0-4.73.52-6.77,1.55-2.04,1.04-3.78,2.37-5.22,4.01-1.44,1.64-2.54,3.48-3.31,5.52-.77,2.04-1.15,4.03-1.15,5.97Z"/>
    <path class="cls-1" d="M786.03,760.52v45.44c0,4.48-.5,8.39-1.5,11.74s-2.34,6.23-4.01,8.68c-1.67,2.44-3.58,4.46-5.72,6.07-2.14,1.61-4.33,2.87-6.57,3.81-2.24.94-4.46,1.6-6.67,2.01s-4.18.6-5.92.6c-2.88,0-5.72-.38-8.52-1.15-2.81-.77-5.45-1.91-7.92-3.41-2.47-1.5-4.71-3.41-6.72-5.72-2.01-2.31-3.61-5.03-4.81-8.17h15.25c1.27,1.54,2.61,2.72,4.01,3.56,1.4.83,2.74,1.45,4.01,1.86,1.27.4,2.41.63,3.41.7,1,.07,1.77.1,2.31.1,1.87,0,3.78-.33,5.72-1,1.94-.67,3.73-1.71,5.37-3.11,1.64-1.4,2.99-3.21,4.06-5.42,1.07-2.21,1.71-4.81,1.91-7.82l-.2-.2c-.47.6-1.15,1.42-2.06,2.46-.9,1.04-2.07,2.02-3.51,2.96-1.44.94-3.21,1.75-5.32,2.46-2.11.7-4.56,1.05-7.37,1.05-3.41,0-6.8-.7-10.18-2.11-3.38-1.4-6.42-3.41-9.13-6.02-2.71-2.61-4.91-5.77-6.62-9.48s-2.56-7.91-2.56-12.59c0-4.35.82-8.31,2.46-11.88,1.64-3.58,3.78-6.65,6.42-9.23,2.64-2.57,5.67-4.56,9.08-5.97s6.89-2.11,10.43-2.11c2.87,0,5.35.35,7.42,1.05,2.07.7,3.81,1.54,5.22,2.51,1.4.97,2.51,1.94,3.31,2.91.8.97,1.4,1.72,1.81,2.26h.2v-6.82h12.94ZM772.69,787.8c0-2.01-.39-4.01-1.15-6.02-.77-2.01-1.87-3.81-3.31-5.42-1.44-1.6-3.16-2.92-5.17-3.96-2.01-1.04-4.25-1.55-6.72-1.55-2.01,0-3.98.4-5.92,1.2-1.94.8-3.68,1.94-5.22,3.41-1.54,1.47-2.78,3.26-3.71,5.37-.94,2.11-1.4,4.46-1.4,7.07,0,2.81.48,5.33,1.45,7.57.97,2.24,2.24,4.11,3.81,5.62,1.57,1.5,3.36,2.66,5.37,3.46,2.01.8,4.01,1.2,6.02,1.2s3.96-.42,5.87-1.25c1.91-.84,3.61-2.02,5.11-3.56,1.5-1.54,2.71-3.41,3.61-5.62.9-2.21,1.35-4.71,1.35-7.52Z"/>
    <path class="cls-1" d="M816.92,794.32c.13.94.57,2.06,1.3,3.36.73,1.3,1.74,2.56,3.01,3.76,1.27,1.2,2.82,2.22,4.66,3.06,1.84.84,3.96,1.25,6.37,1.25,5.95,0,10.23-2.37,12.84-7.12h14.04c-.8,2.54-2.04,4.96-3.71,7.27-1.67,2.31-3.68,4.36-6.02,6.17-2.34,1.81-4.96,3.24-7.87,4.31-2.91,1.07-6,1.61-9.28,1.61-4.21,0-8.12-.77-11.73-2.31-3.61-1.54-6.72-3.64-9.33-6.32-2.61-2.67-4.65-5.8-6.12-9.38-1.47-3.58-2.21-7.4-2.21-11.48s.7-7.72,2.11-11.33c1.4-3.61,3.38-6.79,5.92-9.53,2.54-2.74,5.62-4.93,9.23-6.57,3.61-1.64,7.62-2.46,12.04-2.46s8.61.85,12.19,2.56c3.58,1.71,6.59,3.93,9.03,6.67,2.44,2.74,4.31,5.85,5.62,9.33,1.3,3.48,1.96,6.96,1.96,10.43,0,1.34-.08,2.56-.25,3.66-.17,1.1-.35,2.12-.55,3.06h-43.23ZM847.31,783.59c-.4-2.21-1.07-4.11-2.01-5.72-.94-1.61-2.07-2.92-3.41-3.96-1.34-1.04-2.83-1.81-4.46-2.31-1.64-.5-3.36-.75-5.17-.75-1.34,0-2.79.19-4.36.55-1.57.37-3.09,1.02-4.56,1.96-1.47.94-2.83,2.22-4.06,3.86-1.24,1.64-2.16,3.76-2.76,6.37h30.79Z"/>
  </g>
  <path class="cls-1" d="M561.12,488.05s-36.68-75.13-.44-123.31c36.24-48.17,114.47-72.48,117.56-101.21,0,0,19,72.04.88,120.22-18.12,48.17-67.18,82.21-93.26,87.51,0,0-7.96-41.99,28.29-88.39,0,0-36.24-3.98-53.04,105.19Z"/>
  <path class="cls-1" d="M518.88,488.05s36.68-75.13.44-123.31c-36.24-48.17-114.47-72.48-117.56-101.21,0,0-19,72.04-.88,120.22,18.12,48.17,67.18,82.21,93.26,87.51,0,0,7.96-41.99-28.29-88.39,0,0,36.24-3.98,53.04,105.19Z"/>
  <g>
    <g>
      <path class="cls-1" d="M831.69,569.79l-.5-.28c-.53-.29-1.06-.57-1.59-.86-6.77-3.63-13.83-7.13-21.16-10.47-.69-.32-1.41-.64-2.11-.95-6.83-3.06-13.89-6-21.16-8.82-.69-.27-1.39-.54-2.09-.81-6.88-2.61-13.93-5.12-21.16-7.49-.69-.24-1.39-.46-2.09-.69-6.91-2.24-13.96-4.37-21.16-6.39-.7-.2-1.41-.4-2.11-.6-6.93-1.92-13.99-3.74-21.16-5.43-.7-.17-1.39-.33-2.09-.49-6.95-1.64-14-3.17-21.16-4.6-.69-.15-1.39-.28-2.09-.41-6.96-1.38-14.01-2.65-21.16-3.82-.7-.12-1.41-.24-2.11-.34-6.99-1.14-14.04-2.17-21.16-3.12-.7-.09-1.39-.19-2.09-.27-6.99-.91-14.04-1.72-21.16-2.45-.7-.07-1.39-.13-2.09-.2-7-.69-14.05-1.3-21.16-1.8-.7-.05-1.41-.11-2.09-.15-7.01-.49-14.08-.89-21.17-1.18-.69-.04-1.39-.07-2.09-.09-7.01-.29-14.06-.49-21.16-.6-.69-.01-1.39-.01-2.09-.03-3.51-.04-7.03-.07-10.55-.07s-7.08.03-10.61.07c-.7.01-1.4.01-2.09.03-7.09.11-14.15.3-21.16.6-.7.03-1.41.05-2.11.09-7.09.3-14.14.69-21.16,1.18-.7.05-1.41.09-2.09.15-7.11.52-14.16,1.11-21.16,1.8-.7.07-1.39.15-2.09.21-7.11.72-14.17,1.54-21.16,2.44-.7.09-1.4.19-2.11.28-7.12.94-14.17,1.98-21.16,3.12-.7.11-1.39.21-2.09.33-7.14,1.18-14.2,2.45-21.16,3.83-.7.13-1.41.26-2.09.41-7.16,1.43-14.21,2.96-21.16,4.59-.7.16-1.41.33-2.11.5-7.17,1.7-14.22,3.51-21.16,5.44-.7.2-1.39.38-2.09.6-7.2,2.02-14.25,4.15-21.16,6.39-.7.23-1.41.45-2.09.69-7.22,2.37-14.28,4.88-21.16,7.49-.7.27-1.41.54-2.09.81-7.28,2.81-14.34,5.75-21.17,8.83-.7.32-1.41.64-2.09.95-7.33,3.34-14.38,6.83-21.16,10.47-.52.28-1.03.56-1.55.83l-.54.29h-.01v29.39h.01l1.54-.76c.19-.09.37-.19.56-.26,6.79-3.33,13.85-6.52,21.16-9.57.69-.3,1.39-.58,2.09-.88,6.85-2.82,13.91-5.54,21.17-8.13.69-.25,1.39-.5,2.09-.74,6.88-2.43,13.95-4.73,21.16-6.93.69-.23,1.39-.44,2.09-.64,6.91-2.09,13.96-4.07,21.16-5.95.69-.19,1.39-.37,2.09-.54,6.93-1.79,13.99-3.49,21.16-5.08.7-.16,1.41-.32,2.11-.46,6.96-1.52,14.01-2.97,21.16-4.31.7-.13,1.39-.27,2.09-.38,6.97-1.29,14.03-2.49,21.16-3.58.69-.12,1.39-.23,2.09-.33,6.97-1.07,14.04-2.04,21.16-2.93.7-.09,1.41-.17,2.11-.27,6.99-.85,14.05-1.62,21.16-2.29.7-.08,1.41-.15,2.09-.2,7.01-.66,14.07-1.23,21.16-1.72.69-.04,1.39-.09,2.09-.13,7.01-.46,14.08-.83,21.16-1.13.7-.04,1.41-.07,2.11-.08,7.03-.28,14.08-.46,21.16-.57.7-.01,1.39-.03,2.09-.03,3.53-.04,7.07-.07,10.61-.07s7.04.03,10.55.07c.69,0,1.39.01,2.09.03,7.08.11,14.13.29,21.16.56.7.03,1.39.05,2.09.09,7.09.28,14.14.66,21.17,1.13.7.04,1.39.09,2.09.13,7.09.49,14.16,1.06,21.16,1.72.7.05,1.41.12,2.09.2,7.11.66,14.16,1.43,21.16,2.29.7.08,1.39.17,2.09.27,7.12.88,14.17,1.86,21.16,2.93.7.09,1.41.2,2.11.32,7.13,1.1,14.18,2.29,21.16,3.58.7.13,1.41.27,2.09.4,7.15,1.34,14.2,2.77,21.16,4.29.7.15,1.39.3,2.09.46,7.16,1.59,14.22,3.29,21.16,5.08.7.17,1.41.36,2.11.54,7.19,1.88,14.24,3.86,21.16,5.95.7.2,1.39.41,2.09.64,7.21,2.2,14.28,4.51,21.16,6.93.7.25,1.39.49,2.09.74,7.25,2.58,14.3,5.29,21.16,8.13.7.28,1.41.57,2.11.86,7.3,3.06,14.37,6.26,21.16,9.57.2.09.4.2.6.29l1.5.73.05.03v-29.38l-.05-.03ZM829.6,595.74c-6.8-3.3-13.85-6.47-21.16-9.5-.7-.29-1.41-.58-2.11-.86-6.85-2.81-13.91-5.5-21.16-8.09-.69-.24-1.39-.49-2.09-.73-6.89-2.41-13.95-4.72-21.16-6.91-.7-.21-1.39-.42-2.09-.64-6.92-2.07-13.97-4.04-21.16-5.93-.7-.17-1.41-.36-2.11-.53-6.93-1.79-14-3.47-21.16-5.06-.7-.16-1.39-.3-2.09-.46-6.96-1.51-14.01-2.94-21.16-4.28-.7-.13-1.39-.26-2.09-.38-6.97-1.29-14.03-2.48-21.16-3.58-.7-.11-1.41-.23-2.11-.32-6.99-1.07-14.04-2.04-21.16-2.93-.69-.08-1.39-.17-2.09-.25-7-.86-14.05-1.62-21.16-2.29-.69-.08-1.39-.15-2.09-.2-7-.66-14.06-1.23-21.16-1.71-.7-.05-1.39-.09-2.09-.13-7.01-.46-14.08-.85-21.17-1.14-.7-.03-1.39-.05-2.09-.08-7.03-.27-14.08-.45-21.16-.56-.7-.01-1.4-.03-2.09-.03-3.51-.04-7.03-.07-10.55-.07s-7.08.03-10.61.07c-.7,0-1.39.01-2.09.03-7.08.11-14.13.29-21.16.56-.7.03-1.41.05-2.11.08-7.09.3-14.14.68-21.16,1.14-.7.04-1.41.09-2.09.15-7.09.48-14.14,1.03-21.16,1.7-.7.07-1.39.13-2.09.2-7.11.68-14.16,1.44-21.16,2.31-.7.08-1.4.16-2.11.25-7.12.87-14.17,1.86-21.16,2.92-.7.11-1.39.21-2.09.32-7.13,1.1-14.18,2.29-21.16,3.58-.7.13-1.39.27-2.09.4-7.14,1.33-14.2,2.76-21.16,4.28-.7.15-1.41.3-2.11.46-7.17,1.59-14.22,3.27-21.16,5.06-.7.17-1.41.36-2.09.53-7.18,1.87-14.25,3.84-21.16,5.91-.7.23-1.41.44-2.09.65-7.22,2.19-14.28,4.49-21.16,6.91-.7.24-1.41.49-2.09.73-7.25,2.57-14.32,5.28-21.17,8.09-.7.28-1.41.57-2.09.86-7.29,3.04-14.33,6.2-21.12,9.49v-24.66c6.76-3.66,13.8-7.17,21.12-10.53.69-.32,1.39-.64,2.09-.95,6.83-3.1,13.89-6.06,21.17-8.88.69-.28,1.39-.54,2.09-.81,6.87-2.64,13.92-5.14,21.16-7.54.69-.23,1.39-.46,2.09-.69,6.89-2.25,13.96-4.4,21.16-6.42.7-.21,1.39-.4,2.09-.6,6.92-1.92,13.99-3.75,21.16-5.46.7-.17,1.41-.33,2.11-.5,6.95-1.63,14-3.17,21.16-4.6.69-.15,1.39-.28,2.09-.41,6.96-1.38,14.01-2.66,21.16-3.83.69-.13,1.39-.24,2.09-.36,6.97-1.13,14.03-2.17,21.16-3.11.7-.09,1.41-.19,2.11-.27,6.99-.91,14.04-1.74,21.16-2.47.69-.07,1.39-.13,2.09-.2,7-.69,14.05-1.3,21.16-1.8.7-.05,1.39-.11,2.09-.15,7.01-.49,14.07-.89,21.16-1.21.7-.03,1.41-.05,2.11-.08,7.01-.29,14.08-.49,21.16-.58.7-.03,1.39-.03,2.09-.04,3.53-.04,7.07-.07,10.61-.07s7.04.03,10.55.07c.69.01,1.39.01,2.09.03,7.08.11,14.13.3,21.16.6.69.03,1.39.05,2.09.08,7.09.3,14.16.7,21.17,1.19.7.05,1.41.11,2.09.16,7.11.5,14.16,1.1,21.16,1.79.7.08,1.39.15,2.09.21,7.11.73,14.17,1.54,21.16,2.45.7.09,1.39.17,2.09.28,7.12.94,14.18,1.97,21.16,3.11.7.11,1.41.23,2.11.35,7.15,1.18,14.2,2.45,21.16,3.83.7.13,1.41.26,2.09.41,7.15,1.43,14.21,2.97,21.16,4.6.7.17,1.41.33,2.09.5,7.17,1.71,14.24,3.54,21.16,5.46.7.2,1.41.38,2.11.6,7.2,2.01,14.26,4.16,21.16,6.42.7.23,1.41.45,2.09.69,7.22,2.39,14.29,4.91,21.16,7.53.7.28,1.41.54,2.09.81,7.28,2.84,14.33,5.79,21.16,8.88.7.32,1.41.64,2.11.95,7.33,3.37,14.4,6.89,21.16,10.55v24.66Z"/>
      <path class="cls-1" d="M250.3,568.67v29.5c-.19.08-.37.17-.56.26l-1.54.76v-29.39l.54-.29c.52-.28,1.03-.56,1.55-.83Z"/>
      <path class="cls-1" d="M273.55,557.25v30.48c-.7.29-1.41.57-2.09.88v-30.4c.69-.32,1.39-.64,2.09-.95Z"/>
      <path class="cls-1" d="M296.82,547.61v31.24c-.7.24-1.41.49-2.09.74v-31.18c.69-.26,1.39-.54,2.09-.81Z"/>
      <path class="cls-1" d="M320.07,539.43v31.85c-.7.2-1.41.41-2.09.64v-31.8c.69-.24,1.39-.46,2.09-.69Z"/>
      <path class="cls-1" d="M343.32,532.44v32.35c-.7.17-1.41.36-2.09.54v-32.29c.7-.21,1.39-.4,2.09-.6Z"/>
      <path class="cls-1" d="M366.58,526.5v32.74c-.7.15-1.41.3-2.11.46v-32.7c.7-.17,1.41-.34,2.11-.5Z"/>
      <path class="cls-1" d="M389.83,521.51v33.05c-.7.12-1.39.25-2.09.38v-33.02c.69-.15,1.39-.28,2.09-.41Z"/>
      <path class="cls-1" d="M413.09,517.34v33.3c-.7.11-1.41.21-2.09.33v-33.3c.7-.12,1.39-.23,2.09-.33Z"/>
      <path class="cls-1" d="M436.35,513.95v33.5c-.7.09-1.4.17-2.11.27v-33.49c.7-.09,1.41-.19,2.11-.28Z"/>
      <path class="cls-1" d="M459.6,511.3v33.66c-.69.05-1.39.12-2.09.2v-33.64c.7-.07,1.39-.15,2.09-.21Z"/>
      <path class="cls-1" d="M482.85,509.35v33.75c-.7.04-1.41.09-2.09.13v-33.74c.69-.05,1.39-.09,2.09-.15Z"/>
      <path class="cls-1" d="M506.12,508.08v33.82c-.7.01-1.41.04-2.11.08v-33.8c.7-.04,1.41-.07,2.11-.09Z"/>
      <path class="cls-1" d="M529.37,507.45v33.84c-.7,0-1.39.01-2.09.03v-33.84c.69-.01,1.39-.01,2.09-.03Z"/>
      <path class="cls-1" d="M552.62,507.48v33.84c-.7-.01-1.4-.03-2.09-.03v-33.84c.7.01,1.41.01,2.09.03Z"/>
      <path class="cls-1" d="M575.87,508.17v33.8c-.7-.04-1.39-.07-2.09-.09v-33.8c.7.03,1.41.05,2.09.09Z"/>
      <path class="cls-1" d="M599.14,509.5v33.74c-.7-.04-1.39-.09-2.09-.13v-33.75c.69.04,1.39.09,2.09.15Z"/>
      <path class="cls-1" d="M622.39,511.5v33.66c-.69-.08-1.39-.15-2.09-.2v-33.66c.7.07,1.39.13,2.09.2Z"/>
      <path class="cls-1" d="M645.64,514.22v33.5c-.7-.09-1.39-.19-2.09-.27v-33.5c.7.08,1.39.17,2.09.27Z"/>
      <path class="cls-1" d="M668.91,517.68v33.29c-.7-.12-1.41-.23-2.11-.32v-33.31c.7.11,1.41.23,2.11.34Z"/>
      <path class="cls-1" d="M692.16,521.9v33.04c-.69-.13-1.39-.27-2.09-.4v-33.05c.7.13,1.41.27,2.09.41Z"/>
      <path class="cls-1" d="M715.41,527v32.7c-.7-.16-1.39-.32-2.09-.46v-32.73c.7.16,1.39.32,2.09.49Z"/>
      <path class="cls-1" d="M738.67,533.03v32.29c-.7-.19-1.41-.37-2.11-.54v-32.35c.7.2,1.41.4,2.11.6Z"/>
      <path class="cls-1" d="M761.93,540.11v31.8c-.7-.23-1.39-.44-2.09-.64v-31.86c.7.23,1.41.45,2.09.69Z"/>
      <path class="cls-1" d="M785.18,548.4v31.18c-.7-.25-1.39-.49-2.09-.74v-31.24c.7.26,1.41.54,2.09.81Z"/>
      <path class="cls-1" d="M808.44,558.17v30.4c-.7-.29-1.41-.58-2.11-.86v-30.49c.7.32,1.42.64,2.11.95Z"/>
      <path class="cls-1" d="M831.69,569.79v29.38l-1.5-.73c-.2-.09-.4-.2-.6-.29v-29.5c.53.29,1.06.57,1.59.86l.5.28Z"/>
    </g>
    <path class="cls-1" d="M894.7,637.55c-8.01-.65-16.11-1.01-24.3-1.01-11.86,0-23.56.73-35.05,2.09-29.69,3.53-58.04,11.48-84.34,23.2-27.19,12.12-52.2,28.24-74.29,47.6-.28-1.59-.58-3.18-.93-4.76-12.63-63.79-68.89-111.9-136.39-111.9s-126.32,50.32-137.19,116.28c-22.1-19.31-47.11-35.37-74.29-47.42-26.34-11.68-54.7-19.59-84.43-23.08-11.32-1.33-22.84-2.03-34.53-2.03-7.97,0-15.85.33-23.66.95,62.54-59.04,197.84-99.93,354.67-99.93s292.21,40.91,354.73,99.98Z"/>
  </g>
  <path class="cls-1" d="M403.44,709.88c-.3-.27-.61-.54-.91-.81-.12.7-.23,1.4-.33,2.1.29.25.58.49.87.75.11-.68.26-1.36.38-2.04Z"/>
  <g>
    <path class="cls-1" d="M570,299.49c-.24,6.43-1.81,12.46-5.58,17.78-2.61,3.68-5.98,6.47-9.96,8.56-3.04,1.59-6.21,2.8-9.6,3.41-2.66.48-5.34.59-8.02.24-6.08-.78-11.51-3.14-16.29-6.94-4.2-3.34-7.03-7.67-8.74-12.75-.81-2.41-1.31-4.89-1.6-7.41-.3-2.74-.29-5.48-.13-8.22.27-4.74,1.64-9.2,3.5-13.53,2.49-5.82,5.62-11.29,8.96-16.65,4.73-7.6,9.9-14.92,15.15-22.18.74-1.02,1.48-2.04,2.22-3.06.02-.02.04-.04.12-.1.51.7,1,1.37,1.49,2.04,4.35,6,8.64,12.03,12.7,18.23,3.58,5.44,7,10.99,9.93,16.82,2.04,4.06,3.88,8.21,4.9,12.66.4,1.71.65,3.47.79,5.23.16,1.95.23,3.92.16,5.87Z"/>
    <path class="cls-2" d="M523.04,284.08c-.11-.5-.28-.98-.56-1.43-.37-.59-1.08-.69-1.59-.23-.42.38-.78.85-1.08,1.33-.88,1.45-1.42,3.06-1.88,4.68-.96,3.33-1.64,6.73-2.09,10.17-.38,2.86-.41,5.71.19,8.54.75,3.58,2.31,6.77,4.63,9.58,1.55,1.88,4.23,1.92,5.85.09,1.12-1.27,1.46-2.79,1.13-4.47-.21-1.09-.77-2.01-1.46-2.86-2.1-2.6-3.28-5.58-3.58-8.9-.21-2.37-.02-4.72.23-7.07.03-.26.05-.52.06-.78l.31-6.56c.03-.7,0-1.4-.15-2.08Z"/>
    <path class="cls-2" d="M527.23,270.97c.21,1.01.21,2.07-.08,3.06-.35,1.21-1,2.13-2.04,3.08-.52.48-1.14.82-1.87.54-.76-.29-.98-.99-1.03-1.7-.13-2.15.57-4.02,2.08-5.56.27-.28.63-.5.99-.65.78-.33,1.51-.02,1.81.77.05.13.09.29.13.47Z"/>
  </g>
</svg>